<?xml version="1.0" encoding="utf-8"?>
<!-- Generator: Adobe Illustrator 27.4.0, SVG Export Plug-In . SVG Version: 6.00 Build 0)  -->
<svg version="1.1" id="Layer_1" xmlns="http://www.w3.org/2000/svg" xmlns:xlink="http://www.w3.org/1999/xlink" x="0px" y="0px"
	 viewBox="0 0 51.5 51.5" style="enable-background:new 0 0 51.5 51.5;" xml:space="preserve">
<style type="text/css">
	.st0{fill:#FFFFFF;}
</style>
<g id="Facebook">
	<g id="Facebook_2">
		<path class="st0" d="M25.8,50.3c-13.5,0-24.5-11-24.5-24.5c0-13.5,11-24.5,24.5-24.5c13.5,0,24.5,11,24.5,24.5
			C50.2,39.3,39.3,50.3,25.8,50.3z M25.8,2.3c-13,0-23.5,10.5-23.5,23.5s10.5,23.5,23.5,23.5s23.5-10.5,23.5-23.5S38.7,2.3,25.8,2.3
			z"/>
		<path id="Vector" class="st0" d="M27.4,41.7V27.2h4.9l0.7-5.7h-5.6v-3.6c0-1.6,0.5-2.8,2.8-2.8l3,0V10c-0.5-0.1-2.3-0.2-4.4-0.2
			c-4.3,0-7.3,2.7-7.3,7.5v4.2h-4.9v5.7h4.9v14.6L27.4,41.7z"/>
	</g>
</g>
</svg>
