<?xml version="1.0" encoding="utf-8"?>
<!-- Generator: Adobe Illustrator 27.4.0, SVG Export Plug-In . SVG Version: 6.00 Build 0)  -->
<svg version="1.1" id="Layer_1" xmlns="http://www.w3.org/2000/svg" xmlns:xlink="http://www.w3.org/1999/xlink" x="0px" y="0px"
	 viewBox="0 0 51.5 51.5" style="enable-background:new 0 0 51.5 51.5;" xml:space="preserve">
<style type="text/css">
	.st0{fill:#FFFFFF;}
</style>
<g id="Instagram">
	<g id="Instagram_2">
		<path class="st0" d="M25.8,50.3c-13.5,0-24.5-11-24.5-24.5c0-13.5,11-24.5,24.5-24.5c13.5,0,24.5,11,24.5,24.5
			C50.2,39.3,39.3,50.3,25.8,50.3z M25.8,2.3c-13,0-23.5,10.5-23.5,23.5s10.5,23.5,23.5,23.5s23.5-10.5,23.5-23.5S38.7,2.3,25.8,2.3
			z"/>
		<path id="Vector" class="st0" d="M20.8,25.8c0-2.8,2.2-5,5-5s5,2.2,5,5s-2.2,5-5,5S20.8,28.5,20.8,25.8z M18,25.8
			c0,4.3,3.4,7.7,7.7,7.7s7.7-3.4,7.7-7.7S30,18,25.8,18S18,21.5,18,25.8z M32,17.7c0,0.4,0.1,0.7,0.3,1c0.2,0.3,0.5,0.5,0.8,0.7
			c0.3,0.1,0.7,0.2,1,0.1c0.3-0.1,0.7-0.2,0.9-0.5c0.3-0.3,0.4-0.6,0.5-0.9c0.1-0.3,0-0.7-0.1-1c-0.1-0.3-0.4-0.6-0.7-0.8
			c-0.3-0.2-0.6-0.3-1-0.3h0c-0.5,0-0.9,0.2-1.3,0.5C32.1,16.8,32,17.3,32,17.7z M19.7,38c-1.5-0.1-2.3-0.3-2.8-0.5
			c-0.7-0.3-1.2-0.6-1.7-1.1c-0.5-0.5-0.9-1-1.1-1.7c-0.2-0.5-0.4-1.3-0.5-2.8c-0.1-1.6-0.1-2.1-0.1-6.1s0-4.5,0.1-6.1
			c0.1-1.5,0.3-2.3,0.5-2.8c0.3-0.7,0.6-1.2,1.1-1.7c0.5-0.5,1-0.9,1.7-1.1c0.5-0.2,1.3-0.4,2.8-0.5c1.6-0.1,2.1-0.1,6.1-0.1
			s4.5,0,6.1,0.1c1.5,0.1,2.3,0.3,2.8,0.5c0.7,0.3,1.2,0.6,1.7,1.1c0.5,0.5,0.8,1,1.1,1.7c0.2,0.5,0.4,1.3,0.5,2.8
			c0.1,1.6,0.1,2.1,0.1,6.1s0,4.5-0.1,6.1c-0.1,1.5-0.3,2.3-0.5,2.8c-0.3,0.7-0.6,1.2-1.1,1.7c-0.5,0.5-1,0.8-1.7,1.1
			c-0.5,0.2-1.3,0.4-2.8,0.5C30.2,38,29.8,38,25.8,38S21.3,38,19.7,38z M19.6,10.8c-1.6,0.1-2.7,0.3-3.6,0.7c-1,0.4-1.8,0.9-2.7,1.7
			c-0.8,0.8-1.3,1.7-1.7,2.7c-0.4,1-0.6,2-0.7,3.6c-0.1,1.6-0.1,2.1-0.1,6.2s0,4.6,0.1,6.2c0.1,1.6,0.3,2.7,0.7,3.6
			c0.4,1,0.9,1.8,1.7,2.7c0.8,0.8,1.7,1.3,2.7,1.7c1,0.4,2,0.6,3.6,0.7c1.6,0.1,2.1,0.1,6.2,0.1s4.6,0,6.2-0.1
			c1.6-0.1,2.7-0.3,3.6-0.7c1-0.4,1.8-0.9,2.7-1.7c0.8-0.8,1.3-1.7,1.7-2.7c0.4-1,0.6-2,0.7-3.6c0.1-1.6,0.1-2.1,0.1-6.2
			s0-4.6-0.1-6.2c-0.1-1.6-0.3-2.7-0.7-3.6c-0.4-1-0.9-1.8-1.7-2.7c-0.8-0.8-1.7-1.3-2.7-1.7c-1-0.4-2-0.6-3.6-0.7
			c-1.6-0.1-2.1-0.1-6.2-0.1S21.2,10.8,19.6,10.8z"/>
	</g>
</g>
</svg>
