<?xml version="1.0" encoding="utf-8"?>
<!-- Generator: Adobe Illustrator 27.4.0, SVG Export Plug-In . SVG Version: 6.00 Build 0)  -->
<svg version="1.1" id="Layer_1" xmlns="http://www.w3.org/2000/svg" xmlns:xlink="http://www.w3.org/1999/xlink" x="0px" y="0px"
	 viewBox="0 0 51.5 51.5" style="enable-background:new 0 0 51.5 51.5;" xml:space="preserve">
<style type="text/css">
	.st0{fill:#FFFFFF;}
</style>
<g id="LinkedIn">
	<g id="LinkedIn_2">
		<path class="st0" d="M25.8,50.3c-13.5,0-24.5-11-24.5-24.5c0-13.5,11-24.5,24.5-24.5c13.5,0,24.5,11,24.5,24.5
			C50.2,39.3,39.3,50.3,25.8,50.3z M25.8,2.3c-13,0-23.5,10.5-23.5,23.5s10.5,23.5,23.5,23.5s23.5-10.5,23.5-23.5S38.7,2.3,25.8,2.3
			z"/>
		<g id="Group">
			<path id="Path" class="st0" d="M39.1,37.1c-1.6,0-3.1,0-4.7,0C34,37.1,34,37,34,36.7c0-2.8,0-5.6,0-8.4c0-0.6,0-1.3-0.2-1.9
				c-0.6-2-2.8-2.7-4.4-1.4c-0.9,0.7-1.2,1.6-1.2,2.7c0,2.6,0,5.2,0,7.9c0,0.3,0,0.7,0,1c0,0.3-0.1,0.4-0.4,0.3c-1.6,0-3.2,0-4.8,0
				c-0.3,0-0.4-0.1-0.4-0.4c0-2.4,0-4.7,0-7.1c0-2.9,0-5.9,0-8.7c0-0.3,0.1-0.4,0.4-0.4c1.6,0,3.2,0,4.8,0c0.3,0,0.4,0.1,0.4,0.4
				c0,0.6,0,1.2,0,1.9c0.1-0.1,0.1-0.2,0.2-0.2c1.5-2.1,3.5-2.7,6-2.4c2.8,0.5,4.6,2.4,5.1,5.4c0.1,0.7,0.1,1.4,0.1,2.1c0,3,0,6,0,9
				C39.5,37,39.4,37.1,39.1,37.1z"/>
			<path id="Path_2" class="st0" d="M19.6,28.8c0,2.6,0,5.2,0,7.9c0,0.3-0.1,0.5-0.4,0.5c-1.6,0-3.1,0-4.7,0c-0.3,0-0.4-0.1-0.4-0.4
				c0-5.3,0-10.6,0-15.9c0-0.3,0.1-0.4,0.4-0.4c1.6,0,3.2,0,4.8,0c0.3,0,0.4,0.1,0.4,0.4C19.6,23.5,19.6,26.1,19.6,28.8z"/>
			<path id="Path_3" class="st0" d="M19.8,16.1c-0.4,1.5-1.9,2.4-3.7,2.1c-1.9-0.3-2.9-2.1-2.2-3.9c0.4-1.1,1.5-1.8,2.9-1.8
				C18.9,12.4,20.3,14.1,19.8,16.1z"/>
		</g>
	</g>
</g>
</svg>
