<?xml version="1.0" encoding="utf-8"?>
<!-- Generator: Adobe Illustrator 27.4.0, SVG Export Plug-In . SVG Version: 6.00 Build 0)  -->
<svg version="1.1" id="Layer_1" xmlns="http://www.w3.org/2000/svg" xmlns:xlink="http://www.w3.org/1999/xlink" x="0px" y="0px"
	 viewBox="0 0 51.5 51.5" style="enable-background:new 0 0 51.5 51.5;" xml:space="preserve">
<style type="text/css">
	.st0{fill:#FFFFFF;}
</style>
<path class="st0" d="M25.8,50.3c-13.5,0-24.5-11-24.5-24.5c0-13.5,11-24.5,24.5-24.5c13.5,0,24.5,11,24.5,24.5
	C50.2,39.3,39.3,50.3,25.8,50.3z M25.8,2.3c-13,0-23.5,10.5-23.5,23.5s10.5,23.5,23.5,23.5s23.5-10.5,23.5-23.5S38.7,2.3,25.8,2.3z"
	/>
<path class="st0" d="M37.5,20.6c0,0.3,0,0.5,0,0.8c0,7.8-5.9,16.7-16.7,16.7c-3.3,0-6.4-1-9-2.6c0.4,0,0.9,0.1,1.4,0.1
	c2.7,0,5.3-0.9,7.3-2.5c-2.6,0-4.8-1.8-5.5-4.1c0.4,0.1,0.7,0.1,1.1,0.1c0.5,0,1-0.1,1.5-0.2c-2.7-0.5-4.7-2.9-4.7-5.7
	c0,0,0,0,0-0.1c0.8,0.5,1.7,0.7,2.7,0.8c-1.6-1-2.6-2.9-2.6-4.9c0-1.1,0.3-2.1,0.8-3c2.9,3.6,7.2,5.9,12.1,6.1
	c-0.1-0.4-0.1-0.9-0.1-1.3c0-3.3,2.6-5.9,5.9-5.9c1.7,0,3.2,0.7,4.3,1.8c1.4-0.3,2.6-0.7,3.8-1.4c-0.5,1.4-1.4,2.5-2.6,3.3
	c1.2-0.1,2.3-0.4,3.4-0.9C39.7,18.7,38.7,19.7,37.5,20.6z"/>
</svg>
