<?xml version="1.0" encoding="utf-8"?>
<!-- Generator: Adobe Illustrator 27.4.0, SVG Export Plug-In . SVG Version: 6.00 Build 0)  -->
<svg version="1.1" id="Layer_1" xmlns="http://www.w3.org/2000/svg" xmlns:xlink="http://www.w3.org/1999/xlink" x="0px" y="0px"
	 viewBox="0 0 240 32.87" style="enable-background:new 0 0 240 32.87;" xml:space="preserve">
<style type="text/css">
	.st0{fill:#FFFFFF;}
</style>
<g>
	<g>
		<path class="st0" d="M29.89,28.2c-0.32,0.12-0.64,0.21-0.96,0.28c-0.63,0.13-1.24,0.2-1.85,0.2c-0.36,0.01-0.79,0-1.3-0.04
			c-1.5-0.25-2.89-1.16-4.17-2.73c-1.09-1.31-2.17-3.24-3.25-5.79c-0.27-0.53-0.49-0.94-0.66-1.22s-0.35-0.52-0.57-0.72
			c-0.25-0.22-0.53-0.41-0.85-0.54c-0.32-0.14-0.72-0.23-1.19-0.29h-1.47c-0.71,0-1.26,0.01-1.65,0.02v2.93
			c0,1.73,0.08,3.55,0.23,5.47c0.06,0.72,0.14,1.58,0.25,2.56H5.62c0.12-1.42,0.22-3.27,0.32-5.56c0.04-1.02,0.05-2.04,0.05-3.07
			v-7.8c0-1.61-0.08-3.45-0.25-5.5C5.66,5.31,5.58,4.45,5.51,3.81c1.31,0,2.74-0.01,4.28-0.04c0.72-0.01,1.76-0.04,3.11-0.09
			c0.65-0.02,1.71-0.04,3.16-0.04c1.63,0,3.07,0.12,4.32,0.36c1.24,0.24,2.29,0.62,3.14,1.15c1.82,1.14,2.74,3,2.74,5.58
			c0,1.43-0.56,2.68-1.67,3.73c-0.98,0.94-2.41,1.66-4.28,2.18c0.97,0.08,1.82,0.36,2.56,0.82c0.92,0.58,1.61,1.46,2.06,2.65
			c0.6,1.49,1.26,2.84,1.97,4.05c0.6,1.03,1.14,1.79,1.6,2.29c0.56,0.62,1.05,1.02,1.49,1.21L29.89,28.2z M13.41,6.12L12.6,6.18
			c-0.36,0.02-0.56,0.04-0.62,0.04v9.18c0.38,0.02,0.78,0.04,1.21,0.04c1.23,0,2.42-0.16,3.55-0.48c1.39-0.39,2.39-1.11,3-2.15
			c0.32-0.56,0.48-1.24,0.48-2.06c0-1.5-0.43-2.65-1.3-3.45s-2.17-1.2-3.92-1.23C14.51,6.07,13.98,6.09,13.41,6.12z"/>
		<path class="st0" d="M51.34,4.12c1.72,0.59,3.2,1.44,4.44,2.56c1.25,1.11,2.22,2.45,2.9,4.01c0.67,1.56,1.01,3.29,1.01,5.19
			c0,2.9-0.66,5.36-1.99,7.37c-1.22,1.87-2.9,3.3-5.03,4.28c-1.97,0.92-4.18,1.38-6.64,1.38c-2.04,0-3.91-0.29-5.62-0.88
			s-3.19-1.43-4.43-2.53c-1.25-1.11-2.22-2.45-2.9-4c-0.68-1.56-1.02-3.28-1.02-5.16c0-1.42,0.17-2.75,0.52-3.99
			c0.35-1.24,0.84-2.35,1.48-3.35c0.6-0.95,1.33-1.79,2.19-2.52c0.86-0.73,1.81-1.34,2.85-1.83c2-0.95,4.21-1.42,6.64-1.42
			C47.75,3.23,49.62,3.52,51.34,4.12z M43.11,6.56c-0.93,0.44-1.77,1.09-2.5,1.93c-0.79,0.9-1.42,2-1.86,3.29
			c-0.45,1.3-0.68,2.75-0.68,4.36c0,1.41,0.17,2.72,0.52,3.94c0.35,1.22,0.86,2.29,1.52,3.2c0.67,0.94,1.49,1.66,2.46,2.18
			c0.96,0.52,2.04,0.79,3.22,0.8c0.97,0,1.92-0.22,2.86-0.65c0.93-0.43,1.77-1.06,2.5-1.89c0.78-0.9,1.39-2,1.84-3.29
			c0.44-1.29,0.67-2.76,0.67-4.4c0-1.4-0.17-2.71-0.51-3.93c-0.34-1.23-0.84-2.29-1.49-3.21c-0.67-0.94-1.49-1.66-2.45-2.18
			c-0.96-0.52-2.04-0.79-3.23-0.82C45,5.89,44.05,6.11,43.11,6.56z"/>
		<path class="st0" d="M89.2,28.2c-0.32,0.12-0.64,0.21-0.96,0.28c-0.63,0.13-1.24,0.2-1.85,0.2c-0.36,0.01-0.79,0-1.3-0.04
			c-1.5-0.25-2.89-1.16-4.17-2.73c-1.09-1.31-2.17-3.24-3.25-5.79c-0.27-0.53-0.49-0.94-0.66-1.22s-0.35-0.52-0.57-0.72
			c-0.25-0.22-0.53-0.41-0.85-0.54c-0.32-0.14-0.72-0.23-1.19-0.29h-1.47c-0.71,0-1.26,0.01-1.65,0.02v2.93
			c0,1.73,0.08,3.55,0.23,5.47c0.06,0.72,0.14,1.58,0.25,2.56h-6.84c0.12-1.42,0.22-3.27,0.32-5.56c0.04-1.02,0.05-2.04,0.05-3.07
			v-7.8c0-1.61-0.08-3.45-0.25-5.5c-0.08-1.08-0.16-1.94-0.23-2.58c1.31,0,2.74-0.01,4.28-0.04c0.72-0.01,1.76-0.04,3.11-0.09
			c0.65-0.02,1.71-0.04,3.16-0.04c1.63,0,3.07,0.12,4.32,0.36c1.24,0.24,2.29,0.62,3.14,1.15c1.82,1.14,2.74,3,2.74,5.58
			c0,1.43-0.56,2.68-1.67,3.73c-0.98,0.94-2.41,1.66-4.28,2.18c0.97,0.08,1.82,0.36,2.56,0.82c0.92,0.58,1.61,1.46,2.06,2.65
			c0.6,1.49,1.26,2.84,1.97,4.05c0.6,1.03,1.14,1.79,1.6,2.29c0.56,0.62,1.05,1.02,1.49,1.21L89.2,28.2z M72.71,6.12L71.9,6.18
			c-0.36,0.02-0.56,0.04-0.62,0.04v9.18c0.38,0.02,0.78,0.04,1.21,0.04c1.23,0,2.42-0.16,3.55-0.48c1.39-0.39,2.39-1.11,3-2.15
			c0.32-0.56,0.48-1.24,0.48-2.06c0-1.5-0.43-2.65-1.3-3.45s-2.17-1.2-3.92-1.23C73.81,6.07,73.28,6.09,72.71,6.12z"/>
		<path class="st0" d="M112.2,7.79l-0.66-0.35c-0.98-0.52-2.12-0.95-3.41-1.28c-0.72-0.18-1.48-0.27-2.27-0.27
			c-1.35,0-2.57,0.26-3.65,0.79c-1.08,0.53-2,1.26-2.74,2.21c-0.71,0.92-1.25,1.99-1.63,3.19c-0.38,1.2-0.57,2.48-0.57,3.83
			c0,1.41,0.2,2.73,0.61,3.97c0.41,1.24,0.99,2.32,1.73,3.26c0.75,0.93,1.62,1.67,2.63,2.22c1.01,0.54,2.09,0.85,3.25,0.91
			c0.85,0,1.65-0.08,2.39-0.23c0.74-0.15,1.48-0.41,2.23-0.78c-0.12-0.66-0.21-1.8-0.28-3.41c-0.07-1.52-0.11-3.31-0.11-5.38h5.33
			v4.9c0,1.33,0.04,2.56,0.11,3.69c0.04,0.59,0.08,1.04,0.12,1.33c-0.76,0.47-1.61,0.88-2.54,1.23c-0.94,0.34-2.02,0.65-3.25,0.91
			c-1.2,0.26-2.6,0.39-4.21,0.39c-1.93,0-3.74-0.3-5.43-0.91c-1.69-0.61-3.17-1.48-4.44-2.6c-1.29-1.15-2.29-2.51-3.01-4.09
			c-0.72-1.58-1.07-3.32-1.07-5.21c0-3.1,0.8-5.71,2.42-7.81c1.39-1.83,3.32-3.19,5.81-4.07c1.8-0.64,3.74-0.96,5.83-0.96
			c0.57,0,0.99,0.01,1.26,0.04c1.53,0.13,3.07,0.4,4.63,0.82c0.37,0.1,0.88,0.24,1.55,0.44c0.4,0.14,0.63,0.23,0.69,0.27L112.2,7.79
			z"/>
		<path class="st0" d="M134.09,3.81l6.55,15.98c0.75,1.82,1.68,3.85,2.81,6.07c0.4,0.79,0.84,1.61,1.31,2.45h-7.78
			c0.01,0-0.02-0.14-0.09-0.41c-0.18-0.69-0.44-1.6-0.8-2.75l-0.66-2.01c-0.34-0.06-0.85-0.11-1.53-0.16
			c-0.62-0.05-1.57-0.07-2.86-0.07h-2.86c-1.31,0-2.56,0.07-3.73,0.2l-0.6,1.55c-0.35,0.83-0.71,1.73-1.07,2.7l-0.34,0.96h-3.8
			l0.21-0.41c0.33-0.62,0.79-1.52,1.37-2.7c0.66-1.31,1.3-2.64,1.9-3.98l0.91-2.01l6.61-15.42H134.09z M125.42,20.44
			c0.34,0.04,0.79,0.05,1.35,0.05h0.62h0.66h3.05c1.65,0,2.79-0.02,3.45-0.07l-4.56-11.47L125.42,20.44z"/>
		<path class="st0" d="M168.68,28.32c-3.13-3.04-5.46-5.29-7.02-6.73c-1.57-1.5-3.41-3.19-5.5-5.06c-1.97-1.72-3.29-2.79-3.98-3.21
			l0.16,6.06c0.11,1.93,0.27,4.09,0.48,6.48c0.08,0.95,0.14,1.56,0.18,1.83l0.07,0.64h-4.01l0.04-1.23l0.11-4.55
			c0.01-0.6,0.02-1.5,0.02-2.68v-7.99c0-1.86-0.04-3.85-0.12-5.99l-0.12-2.08h2.54c2.89,2.87,5.34,5.28,7.35,7.23
			c2,1.95,3.87,3.74,5.59,5.35c1.88,1.78,3.1,2.87,3.64,3.29l-0.2-6.89c-0.11-2.42-0.26-4.59-0.46-6.52
			c-0.07-0.78-0.17-1.6-0.3-2.45h4.05c0,0.45-0.03,1.53-0.09,3.25c-0.07,1.56-0.11,3.29-0.11,5.19v8.01c0,2.18,0.05,4.18,0.14,6
			l0.05,0.69c0.01,0.41,0.04,0.87,0.09,1.37H168.68z"/>
		<path class="st0" d="M178.19,11.97c0-1.4-0.07-3.24-0.2-5.54c-0.07-1.14-0.13-2.01-0.18-2.61h6.78c-0.14,1.41-0.25,3.15-0.32,5.22
			c-0.04,0.97-0.05,1.95-0.05,2.93v8.29c0,1.6,0.06,3.43,0.18,5.49c0.07,1.12,0.14,1.98,0.2,2.58h-6.78
			c0.12-1.31,0.22-3.04,0.32-5.17c0.04-0.96,0.05-1.92,0.05-2.9V11.97z"/>
		<path class="st0" d="M211.54,26.99c-0.6,0.36-1.29,0.66-2.04,0.92s-1.64,0.49-2.65,0.69c-1.03,0.2-2.16,0.3-3.39,0.3
			c-2.03,0-3.88-0.29-5.55-0.88c-1.67-0.59-3.12-1.44-4.32-2.55c-1.22-1.1-2.16-2.43-2.81-3.98c-0.65-1.55-0.98-3.27-0.98-5.17
			c0-2.98,0.66-5.51,1.97-7.58c1.18-1.88,2.84-3.29,4.97-4.23c1.94-0.86,4.11-1.3,6.5-1.3c2.01,0,3.98,0.29,5.92,0.87
			c0.86,0.27,1.59,0.56,2.18,0.87l-1.35,2.93c0-0.01-0.17-0.12-0.5-0.34c-0.37-0.24-0.85-0.48-1.44-0.72
			c-0.59-0.24-1.25-0.46-1.99-0.65c-0.81-0.2-1.63-0.3-2.47-0.3c-1.02,0-1.98,0.2-2.89,0.59c-0.91,0.39-1.72,0.98-2.43,1.78
			c-0.78,0.89-1.39,2.01-1.82,3.38c-0.43,1.36-0.65,2.97-0.65,4.81c0,1.37,0.17,2.65,0.51,3.83c0.34,1.18,0.81,2.21,1.43,3.08
			c0.64,0.91,1.41,1.62,2.32,2.13c0.91,0.51,1.92,0.78,3.03,0.8c1.73,0,3.45-0.37,5.15-1.12c0.57-0.24,1.07-0.49,1.51-0.76
			l0.55-0.34L211.54,26.99z"/>
		<path class="st0" d="M216.61,22.87c0.52,0.49,1.13,0.94,1.83,1.36c0.7,0.42,1.43,0.78,2.18,1.09c0.73,0.3,1.45,0.53,2.14,0.69
			s1.3,0.25,1.82,0.25c0.71,0,1.37-0.08,1.99-0.25c0.62-0.17,1.14-0.4,1.58-0.71c0.44-0.31,0.78-0.67,1.01-1.08
			c0.24-0.41,0.36-0.86,0.36-1.33c0-0.54-0.17-1.06-0.52-1.55c-0.35-0.49-0.85-0.97-1.5-1.45c-0.58-0.41-1.27-0.85-2.08-1.3
			c-0.12-0.06-0.3-0.16-0.53-0.3c-1.83-0.97-3.25-1.78-4.25-2.43c-1.68-1.07-2.86-2.27-3.53-3.61c-0.35-0.7-0.53-1.52-0.53-2.47
			s0.17-1.85,0.51-2.7c0.66-1.68,2.12-2.82,4.39-3.41c1.14-0.3,2.57-0.44,4.3-0.44c1.35,0,2.69,0.16,4.03,0.47
			c1.34,0.31,2.62,0.8,3.84,1.47l-1.3,3c-0.25-0.24-0.64-0.49-1.16-0.75c-0.53-0.27-1.11-0.51-1.75-0.74
			c-1.53-0.51-2.74-0.76-3.62-0.76c-1.21,0-2.14,0.24-2.79,0.73c-0.65,0.49-0.98,1.18-0.98,2.08c0,0.43,0.17,0.83,0.52,1.23
			c0.35,0.39,0.86,0.79,1.52,1.21c0.69,0.43,1.38,0.8,2.08,1.14c1.95,0.98,3.54,1.87,4.76,2.65c1.66,1.09,2.84,2.35,3.55,3.78
			c0.37,0.75,0.55,1.6,0.55,2.56c0,1.2-0.26,2.26-0.77,3.21c-0.52,0.94-1.23,1.74-2.16,2.41c-0.94,0.66-2.03,1.17-3.28,1.51
			c-1.25,0.34-2.57,0.51-3.95,0.51c-1.66,0-3.3-0.24-4.94-0.73c-1.91-0.56-3.45-1.34-4.62-2.34L216.61,22.87z"/>
	</g>
</g>
</svg>
